<svg xmlns="http://www.w3.org/2000/svg" xmlns:xlink="http://www.w3.org/1999/xlink" version="1.1"
   x="0px" y="0px" viewBox="0 0 100 100" enable-background="new 0 0 100 100" xml:space="preserve"
   style="max-width:100%" height="100%"><path d="M50,5C25.147,5,5,25.147,5,50s20.147,45,45,45s45-20.147,45-45S74.853,5,50,5z M50,91.5C27.08,91.5,8.5,72.92,8.5,50  C8.5,27.08,27.08,8.5,50,8.5S91.5,27.08,91.5,50C91.5,72.92,72.92,91.5,50,91.5z" style="" fill="currentColor"></path><path d="M69.866,50.669c0.024-0.058,0.038-0.118,0.055-0.178c0.015-0.05,0.034-0.097,0.044-0.149c0.045-0.226,0.045-0.459,0-0.686  c-0.01-0.051-0.029-0.099-0.044-0.149c-0.017-0.06-0.031-0.12-0.055-0.178c-0.024-0.059-0.058-0.112-0.088-0.167  c-0.025-0.045-0.044-0.092-0.073-0.135c-0.064-0.096-0.137-0.186-0.218-0.267L55.345,34.62c-0.683-0.683-1.791-0.683-2.475,0  s-0.683,1.791,0,2.475L64.025,48.25c-9.67,0-32.275,0-32.275,0C30.784,48.25,30,49.034,30,50s0.784,1.75,1.75,1.75  c0,0,22.603,0,32.275,0L52.87,62.905c-0.683,0.683-0.683,1.792,0,2.475s1.791,0.683,2.475,0l14.142-14.142  c0.081-0.081,0.154-0.171,0.218-0.267c0.029-0.043,0.049-0.09,0.073-0.135C69.809,50.781,69.842,50.728,69.866,50.669z" style="" fill="currentColor"></path></svg>
   