<svg xmlns="http://www.w3.org/2000/svg" xmlns:xlink="http://www.w3.org/1999/xlink" version="1.1" x="0px" y="0px" viewBox="0 0 64 64" style="enable-background:new 0 0 64 64;max-width:100%" xml:space="preserve" height="100%"><path d="M10.312,45.669c-0.524,0.47-1.033,0.957-1.527,1.46c-0.144,0.146-0.283,0.297-0.425,0.446  c-0.362,0.382-0.716,0.773-1.062,1.173c-0.15,0.174-0.304,0.344-0.451,0.52c-0.407,0.491-0.8,0.997-1.181,1.513  c-0.173,0.234-0.34,0.474-0.508,0.713c-0.268,0.382-0.527,0.772-0.781,1.167c-0.134,0.209-0.273,0.414-0.403,0.627  C3.968,53.3,3.961,53.31,3.954,53.322c-0.003,0.004-0.003,0.01-0.005,0.014c-0.825,1.358-1.568,2.78-2.207,4.27l1.838,0.788  c0.222-0.518,0.473-1.018,0.72-1.52l0.715,4.291C5.094,61.646,5.511,62,6,62h4c0.127,0,0.253-0.024,0.372-0.071l4.751-1.901  l6.735,0.962c0.459,0.068,0.899-0.19,1.07-0.618l1.878-4.697l7.723-4.827c0.25-0.156,0.418-0.415,0.46-0.707l1-7  c0.073-0.507-0.25-0.987-0.747-1.112l-3.845-0.961l-2.361-1.49c0.164-0.031,0.328-0.064,0.493-0.092  c0.528-0.091,1.057-0.167,1.589-0.232c0.257-0.031,0.515-0.061,0.774-0.086c0.525-0.051,1.052-0.087,1.579-0.112  c0.273-0.013,0.547-0.024,0.822-0.03c0.546-0.012,1.092-0.01,1.639,0.005c0.202,0.006,0.404,0.011,0.606,0.021  c0.014,0.001,0.029,0.001,0.043,0.002c0.558,0.027,1.116,0.074,1.673,0.13c0.215,0.022,0.43,0.039,0.644,0.066  c0.553,0.067,1.103,0.157,1.653,0.253c0.217,0.038,0.437,0.068,0.653,0.111c0.57,0.112,1.135,0.25,1.7,0.393  c0.724,0.185,1.44,0.393,2.147,0.627c0.31,0.103,0.618,0.211,0.925,0.323c0.407,0.149,0.812,0.302,1.213,0.467  c0.308,0.127,0.611,0.264,0.914,0.401c0.111,0.05,0.221,0.103,0.332,0.154l-3.709,1.06c-0.286,0.082-0.521,0.287-0.641,0.559  c-0.12,0.272-0.112,0.584,0.021,0.85l0.678,1.355l-3.49,3.49c-0.391,0.391-0.391,1.023,0,1.414l4,4  c0.212,0.212,0.503,0.321,0.806,0.288c0.298-0.029,0.567-0.191,0.733-0.44L48.535,49H51v3.419l-6.496,3.712  c-0.077,0.044-0.148,0.098-0.211,0.161l-2,2c-0.337,0.337-0.39,0.865-0.125,1.262l2,3l1.664-1.109l-1.545-2.318l1.326-1.326  l6.884-3.934C52.808,53.69,53,53.359,53,53v-5c0-0.552-0.448-1-1-1h-4c-0.334,0-0.646,0.167-0.832,0.445l-3.323,4.985L41.414,50  l3.293-3.293c0.304-0.304,0.38-0.769,0.188-1.154l-0.461-0.922l4.597-1.313c0.039,0.023,0.08,0.042,0.119,0.065  c0.153,0.09,0.298,0.19,0.45,0.282c0.486,0.296,0.97,0.597,1.442,0.919c0.431,0.295,0.851,0.603,1.266,0.917  c0.111,0.084,0.226,0.16,0.336,0.245c3.397,2.643,6.239,5.949,8.346,9.739l0.004-0.002c0.001,0.002,0.002,0.003,0.003,0.005  l1.748-0.971c-1.154-2.078-2.512-4.001-4.033-5.758c-0.028-0.032-0.059-0.062-0.087-0.095c-0.476-0.545-0.965-1.075-1.473-1.586  c-0.108-0.109-0.223-0.21-0.332-0.318c-0.435-0.426-0.874-0.847-1.33-1.248c-0.173-0.152-0.354-0.295-0.53-0.444  c-0.404-0.342-0.809-0.682-1.228-1.004c-0.228-0.175-0.465-0.339-0.697-0.509c-0.015-0.011-0.029-0.021-0.044-0.032l1.922-4.614  l2.99-6.478l2.992-5.984c0.122-0.244,0.139-0.528,0.047-0.785c-0.092-0.257-0.286-0.465-0.535-0.576l-0.271-0.12l1.759-3.519  c0.226-0.451,0.08-1-0.34-1.279l-3-2l-3-2c-0.239-0.16-0.536-0.209-0.812-0.134c-0.277,0.073-0.509,0.263-0.638,0.519l-2.345,4.691  l-0.354-0.157c-0.491-0.218-1.062-0.012-1.301,0.466l-3,6l-3,6c-0.005,0.01-0.004,0.02-0.008,0.03  c-0.004,0.009-0.013,0.015-0.016,0.023l-1.691,3.947l-1.406-7.731C40.897,29.346,40.483,29,40,29h-1.246l-1.793-6.275  C36.839,22.296,36.446,22,36,22h-0.153l-1.861-11.165c-0.005-0.032-0.023-0.058-0.032-0.089C34.574,10.406,35,9.756,35,9V7  c0-1.103-0.897-2-2-2V2h-2v3c-1.103,0-2,0.897-2,2v2c0,0.756,0.426,1.406,1.045,1.747c-0.008,0.031-0.026,0.057-0.032,0.089  L28.153,22H28c-0.446,0-0.839,0.296-0.961,0.725L25.246,29H24c-0.483,0-0.897,0.346-0.984,0.821l-1.441,7.924l-3.647-9.117l-4-10  c-0.005-0.013-0.017-0.022-0.023-0.035c-0.042-0.094-0.099-0.179-0.168-0.257c-0.016-0.018-0.03-0.037-0.047-0.054  c-0.01-0.009-0.016-0.021-0.026-0.03l-9-8c-0.283-0.251-0.683-0.321-1.036-0.181c-0.352,0.141-0.594,0.468-0.625,0.846l-1,12  c-0.001,0.013,0.002,0.026,0.002,0.039c-0.001,0.024,0.003,0.048,0.003,0.072c0.003,0.104,0.021,0.206,0.055,0.302  c0.005,0.014,0.002,0.028,0.008,0.041l4,10l4.744,11.861c-0.075,0.065-0.15,0.129-0.225,0.195  C10.498,45.508,10.404,45.587,10.312,45.669z M26.78,37.57C28.007,35.972,29.922,35,32,35c1.921,0,3.708,0.837,4.937,2.233  c-0.098-0.011-0.195-0.013-0.292-0.023c-0.284-0.03-0.567-0.059-0.852-0.082c-0.35-0.029-0.702-0.051-1.054-0.069  c-0.185-0.01-0.371-0.024-0.555-0.03c-0.196-0.007-0.392-0.005-0.588-0.008C33.397,37.017,33.2,37,33,37  c-0.191,0-0.379,0.018-0.57,0.021c-0.088,0.002-0.177-0.002-0.265,0c-0.348,0.008-0.694,0.029-1.041,0.048  c-0.352,0.019-0.704,0.038-1.055,0.068c-0.158,0.014-0.316,0.026-0.474,0.042c-0.326,0.033-0.651,0.078-0.976,0.12  c-0.29,0.037-0.581,0.068-0.87,0.113c-0.157,0.024-0.313,0.057-0.47,0.084C27.114,37.524,26.946,37.539,26.78,37.57z M28.757,42.97  l3.125,0.781l-0.807,5.647l-7.605,4.753c-0.18,0.113-0.32,0.28-0.399,0.477l-1.708,4.271l-6.222-0.889  c-0.175-0.025-0.351-0.004-0.513,0.061L9.808,60h-2.96l-0.992-5.952c0.011-0.017,0.022-0.033,0.033-0.05  c0.308-0.491,0.632-0.97,0.964-1.441c0.158-0.224,0.319-0.445,0.482-0.664c0.312-0.42,0.633-0.832,0.964-1.235  c0.152-0.185,0.308-0.367,0.464-0.549c0.347-0.403,0.704-0.798,1.07-1.182c0.133-0.14,0.266-0.281,0.402-0.418  c0.464-0.47,0.94-0.928,1.431-1.368c0.071-0.063,0.144-0.124,0.215-0.186c0.326-0.286,0.666-0.556,1.003-0.829  c0.507-0.41,1.026-0.801,1.555-1.178c0.172-0.123,0.342-0.249,0.517-0.368c0.553-0.378,1.12-0.733,1.694-1.075  c0.152-0.09,0.299-0.187,0.452-0.275c0.707-0.405,1.428-0.784,2.166-1.134c0.055-0.026,0.111-0.052,0.167-0.078  c0.741-0.347,1.496-0.666,2.265-0.956c0.405-0.153,0.819-0.286,1.231-0.422c0.456-0.151,0.916-0.289,1.378-0.419l4.159,2.625  C28.556,42.902,28.654,42.944,28.757,42.97z M44.018,38.829l1.483-3.46l7.216,3.608l-1.407,3.378  c-0.215-0.138-0.437-0.26-0.654-0.392c-0.219-0.133-0.438-0.267-0.66-0.396c-0.088-0.051-0.173-0.106-0.261-0.156  c-0.025-0.014-0.048-0.031-0.073-0.045c-0.001,0-0.002,0-0.003-0.001c-0.346-0.195-0.699-0.373-1.051-0.555  c-0.152-0.079-0.302-0.161-0.456-0.238c-0.585-0.292-1.178-0.566-1.778-0.824c-0.05-0.022-0.1-0.046-0.15-0.067  C45.498,39.374,44.765,39.085,44.018,38.829z M58.306,24.153l-1.443-0.641l1.525-3.051l1.323,0.882L58.306,24.153z M55.388,18.46  l1.323,0.882l-1.678,3.356l-1.443-0.641L55.388,18.46z M51.282,23.673c0.052,0.055,0.098,0.115,0.164,0.159l3,2l3,2  c0.134,0.09,0.288,0.134,0.445,0.152l-1.357,2.714l-2.39-1.062l-4.78-2.125L51.282,23.673z M48.467,29.302l1.2,0.533l6,2.667  l-2.143,4.642l-7.183-3.591L48.467,29.302z M31,7h2l0.001,2H31V7z M31.847,12h0.306l1.667,10h-3.639L31.847,12z M28.754,24H29h6  h0.246l1.429,5h-9.349L28.754,24z M24.834,31H26h12h1.166l1.239,6.816c-0.102-0.023-0.206-0.037-0.308-0.058  c-0.165-0.035-0.33-0.071-0.496-0.104C38.134,34.817,35.22,33,32,33c-3.429,0-6.517,2.033-7.877,5.179  c-0.14,0.038-0.277,0.083-0.416,0.122c-0.07,0.02-0.14,0.034-0.21,0.054L24.834,31z M19.981,39.592  c-0.398,0.164-0.791,0.337-1.181,0.516c-0.133,0.061-0.267,0.12-0.4,0.183c-0.668,0.317-1.325,0.654-1.969,1.012  c-0.07,0.039-0.137,0.08-0.207,0.119c-0.016,0.009-0.032,0.019-0.049,0.028c-0.027,0.015-0.053,0.031-0.079,0.046  c-0.571,0.326-1.131,0.669-1.681,1.027c-0.069,0.045-0.14,0.089-0.209,0.134c-0.602,0.399-1.191,0.815-1.766,1.252L8.3,33.557  l8.143-3.257l3.69,9.224C20.081,39.545,20.032,39.571,19.981,39.592z M4.3,23.557l8.143-3.257l3.257,8.142L7.557,31.7L4.3,23.557z   M4.831,13.076l6.296,5.596L4.131,21.47L4.831,13.076z" style="" fill="currentColor"></path><path d="M10,23c-1.654,0-3,1.346-3,3s1.346,3,3,3s3-1.346,3-3S11.654,23,10,23z M10,27c-0.551,0-1-0.449-1-1s0.449-1,1-1  s1,0.449,1,1S10.551,27,10,27z" style="" fill="currentColor"></path></svg>