<svg xmlns="http://www.w3.org/2000/svg" xmlns:xlink="http://www.w3.org/1999/xlink" version="1.1" x="0px" y="0px" viewBox="0 0 64 64" style="enable-background:new 0 0 64 64;max-width:100%" xml:space="preserve" height="100%"><g style="" fill="currentColor"><path d="M56.397,45.128c-0.28-2.946-2.398-5.408-5.271-6.127L40,36.219v-2.692c1.205-1.28,2.105-2.845,2.589-4.586   C45.066,28.645,47,26.555,47,24v-7h3v-1c0-2.43-1.744-4.456-4.046-4.904C45.492,5.453,40.76,1,35,1h-6   c-5.76,0-10.492,4.453-10.954,10.096C15.744,11.544,14,13.57,14,16v1h3v7c0,2.555,1.934,4.645,4.411,4.94   c0.484,1.741,1.384,3.306,2.589,4.586v2.692l-11.128,2.782c-2.871,0.719-4.989,3.181-5.27,6.127L5.9,63H58.1L56.397,45.128z    M23.059,27H28c1.654,0,3-1.346,3-3v-1.04c0.138,0.013,0.273,0.04,0.414,0.04h1.172c0.141,0,0.276-0.028,0.414-0.04V24   c0,1.654,1.346,3,3,3h4.941c-0.499,4.493-4.316,8-8.941,8S23.558,31.493,23.059,27z M41,17v2h-3.586   c-1.179,0-2.287,0.459-3.121,1.293C33.837,20.749,33.23,21,32.586,21h-1.172c-0.645,0-1.251-0.251-1.707-0.707   C28.873,19.459,27.765,19,26.586,19H23v-2H41z M35,22.279c0.251-0.165,0.489-0.354,0.707-0.572C36.163,21.251,36.77,21,37.414,21   H41v4h-5c-0.552,0-1-0.448-1-1V22.279z M29,22.279V24c0,0.552-0.448,1-1,1h-5v-4h3.586c0.645,0,1.251,0.251,1.707,0.707   C28.511,21.925,28.749,22.114,29,22.279z M42.958,26.829C42.979,26.554,43,26.28,43,26v-4.816c1.161,0.414,2,1.514,2,2.816   C45,25.317,44.141,26.427,42.958,26.829z M45,20.026c-0.584-0.442-1.257-0.773-2-0.924V17h2V20.026z M43.944,11h-6   c-0.22-2.998-1.419-5.79-3.412-8H35C39.625,3,43.445,6.506,43.944,11z M32,3.311c2.286,1.966,3.687,4.704,3.945,7.689h-7.888   C28.313,8.015,29.714,5.278,32,3.311z M29,3h0.468c-1.993,2.211-3.192,5.002-3.412,8h-6C20.555,6.506,24.375,3,29,3z M19,13h26   c1.304,0,2.416,0.836,2.829,2H16.171C16.584,13.836,17.696,13,19,13z M21,17v2.101c-0.743,0.152-1.416,0.482-2,0.924V17H21z M19,24   c0-1.302,0.839-2.402,2-2.816V26c0,0.28,0.021,0.554,0.042,0.829C19.859,26.427,19,25.317,19,24z M9.593,45.317   c0.201-2.104,1.714-3.863,3.765-4.377L26,37.781v-2.574C27.727,36.337,29.786,37,32,37s4.273-0.663,6-1.792v2.574l12.642,3.159   c2.052,0.514,3.564,2.272,3.766,4.377L55.044,52h-5.54l-0.507-6.083l-1.992,0.166L47.913,57H44.92l-1-12H39c0-3.859-3.141-7-7-7   s-7,3.141-7,7h-4.92l-1,12h-2.993l0.909-10.917l-1.992-0.166L14.497,52h-5.54L9.593,45.317z M36,53v8h-8v-8h-2v5.026   C25.162,57.391,24.13,57,23,57h-1.914l0.834-10h3.332c0.196,0.729,0.498,1.428,0.924,2.066L32,57.803l5.824-8.736   c0.426-0.638,0.728-1.337,0.924-2.066h3.332l0.834,10H41c-1.13,0-2.162,0.391-3,1.026V53H36z M27,45.184V45c0-2.757,2.243-5,5-5   s5,2.243,5,5v0.184c0,0.99-0.29,1.949-0.84,2.773L32,54.197l-4.16-6.24C27.29,47.133,27,46.174,27,45.184z M8.766,54h5.564   l-0.417,5H23c1.302,0,2.402,0.839,2.816,2H8.1L8.766,54z M38.184,61c0.414-1.161,1.514-2,2.816-2h9.087l-0.417-5h5.564l0.667,7   H38.184z" style="" fill="currentColor"></path><path d="M36,29h-2c0,1.103-0.897,2-2,2s-2-0.897-2-2h-2c0,2.206,1.794,4,4,4S36,31.206,36,29z" style="" fill="currentColor"></path><path d="M35,45c0-1.654-1.346-3-3-3s-3,1.346-3,3s1.346,3,3,3S35,46.654,35,45z M31,45c0-0.552,0.448-1,1-1s1,0.448,1,1   s-0.448,1-1,1S31,45.552,31,45z" style="" fill="currentColor"></path></g></svg>