<?xml version="1.0" encoding="UTF-8"?>
<svg width="605px" height="170px" viewBox="0 0 605 170" version="1.1" xmlns="http://www.w3.org/2000/svg" xmlns:xlink="http://www.w3.org/1999/xlink">
    <!-- Generator: Sketch 58 (84663) - https://sketch.com -->
    <title>5f80a2d532c7080021176177</title>
    <desc>Created with Sketch.</desc>
    <defs>
        <linearGradient x1="-0.000843971632%" y1="-0.000205319147%" x2="99.9175957%" y2="99.9182344%" id="linearGradient-1">
            <stop stop-color="#FF3C42" offset="0%"></stop>
            <stop stop-color="#FF573C" offset="100%"></stop>
        </linearGradient>
        <linearGradient x1="-0.0375672018%" y1="0.0803730962%" x2="99.8775704%" y2="99.8686584%" id="linearGradient-2">
            <stop stop-color="#FF3C42" offset="0%"></stop>
            <stop stop-color="#FF573C" offset="100%"></stop>
        </linearGradient>
        <linearGradient x1="0.105454545%" y1="-0.235454545%" x2="100.105455%" y2="99.7645455%" id="linearGradient-3">
            <stop stop-color="#FF3C42" offset="0%"></stop>
            <stop stop-color="#FF573C" offset="100%"></stop>
        </linearGradient>
        <path d="M213.449219,126.220703 L216.844727,126.220703 L216.844727,146 L213.449219,146 L213.449219,126.220703 Z M213.449219,118.743164 L216.844727,118.743164 L216.844727,122.52832 L213.449219,122.52832 L213.449219,118.743164 Z M221.891602,126.12793 L225.064453,126.12793 L225.064453,128.948242 C226.004562,127.785476 227.00032,126.950523 228.051758,126.443359 C229.103195,125.936195 230.272129,125.682617 231.558594,125.682617 C234.37892,125.682617 236.283849,126.666006 237.273438,128.632812 C237.817711,129.70899 238.089844,131.249013 238.089844,133.25293 L238.089844,146 L234.694336,146 L234.694336,133.475586 C234.694336,132.26334 234.514976,131.286137 234.15625,130.543945 C233.562497,129.30696 232.486336,128.688477 230.927734,128.688477 C230.136064,128.688477 229.486656,128.768879 228.979492,128.929688 C228.064123,129.201824 227.260095,129.74609 226.567383,130.5625 C226.010739,131.218102 225.648927,131.895342 225.481934,132.594238 C225.314941,133.293135 225.231445,134.291986 225.231445,135.59082 L225.231445,146 L221.891602,146 L221.891602,126.12793 Z M245.010742,139.765625 C245.109701,140.878912 245.388019,141.732419 245.845703,142.326172 C246.686853,143.402349 248.146474,143.94043 250.224609,143.94043 C251.461595,143.94043 252.550126,143.671389 253.490234,143.133301 C254.430343,142.595212 254.900391,141.763352 254.900391,140.637695 C254.900391,139.784175 254.523116,139.134768 253.768555,138.689453 C253.320589,138.436755 252.467334,138.14673 251.208766,137.819371 L248.257812,137.075195 C246.563143,136.65462 245.313806,136.184573 244.509766,135.665039 C243.074863,134.76204 242.357422,133.512703 242.357422,131.916992 C242.357422,130.036774 243.034661,128.515305 244.38916,127.352539 C245.743659,126.189773 247.565093,125.608398 249.853516,125.608398 C252.84702,125.608398 255.005527,126.486645 256.329102,128.243164 C257.157882,129.356451 257.559896,130.556309 257.535156,131.842773 L254.380859,131.842773 C254.31901,131.088212 254.053062,130.401696 253.583008,129.783203 C252.816077,128.904944 251.486338,128.46582 249.59375,128.46582 C248.332025,128.46582 247.376468,128.707029 246.727051,129.189453 C246.077633,129.671877 245.75293,130.308915 245.75293,131.100586 C245.75293,131.966476 246.179683,132.659177 247.033203,133.178711 C247.527997,133.487957 248.257808,133.76009 249.222656,133.995117 L251.430664,134.533203 C253.830416,135.114586 255.438472,135.677406 256.254883,136.22168 C257.553717,137.0752 258.203125,138.417309 258.203125,140.248047 C258.203125,142.016936 257.532071,143.54459 256.189941,144.831055 C254.847812,146.117519 252.803725,146.760742 250.057617,146.760742 C247.101222,146.760742 245.007656,146.089688 243.776855,144.747559 C242.546055,143.405429 241.88737,141.744802 241.800781,139.765625 L245.010742,139.765625 Z M262.693359,120.580078 L266.070312,120.580078 L266.070312,126.12793 L269.243164,126.12793 L269.243164,128.855469 L266.070312,128.855469 L266.070312,141.825195 C266.070312,142.517907 266.305336,142.98177 266.775391,143.216797 C267.035158,143.352865 267.468096,143.420898 268.074219,143.420898 L268.412326,143.416775 L268.412326,143.416775 L268.59375,143.411621 C268.779298,143.405436 268.995767,143.389974 269.243164,143.365234 L269.243164,146 C268.859699,146.111329 268.460777,146.191732 268.046387,146.241211 C267.631997,146.29069 267.183596,146.31543 266.701172,146.31543 C265.14257,146.31543 264.084964,145.916508 263.52832,145.118652 C262.971677,144.320797 262.693359,143.284837 262.693359,142.010742 L262.693359,128.855469 L260.00293,128.855469 L260.00293,126.12793 L262.693359,126.12793 L262.693359,120.580078 Z M275.143555,140.711914 C275.143555,141.676763 275.49609,142.437497 276.201172,142.994141 C276.906254,143.550784 277.741206,143.829102 278.706055,143.829102 C279.881191,143.829102 281.0192,143.556969 282.120117,143.012695 C283.975595,142.109696 284.90332,140.631521 284.90332,138.578125 L284.90332,135.887695 C284.495115,136.147462 283.969404,136.363931 283.326172,136.537109 C282.682939,136.710287 282.052086,136.833984 281.433594,136.908203 L279.411133,137.167969 C278.198887,137.328777 277.289717,137.582355 276.683594,137.928711 C275.656896,138.510094 275.143555,139.437819 275.143555,140.711914 Z M283.233398,133.958008 C284.000329,133.859049 284.513671,133.537438 284.773438,132.993164 C284.921876,132.696288 284.996094,132.269534 284.996094,131.712891 C284.996094,130.574864 284.590987,129.749189 283.780762,129.23584 C282.970536,128.722491 281.81088,128.46582 280.301758,128.46582 C278.557608,128.46582 277.320642,128.935868 276.59082,129.875977 C276.182615,130.39551 275.916667,131.168615 275.792969,132.195312 L272.675781,132.195312 C272.737631,129.746082 273.532382,128.04216 275.060059,127.083496 C276.587736,126.124832 278.35969,125.645508 280.375977,125.645508 C282.713879,125.645508 284.612623,126.090816 286.072266,126.981445 C287.519538,127.872075 288.243164,129.257478 288.243164,131.137695 L288.243164,142.585938 C288.243164,142.932293 288.31429,143.210611 288.456543,143.420898 C288.598796,143.631186 288.898761,143.736328 289.356445,143.736328 C289.504884,143.736328 289.671874,143.727051 289.857422,143.708496 C290.04297,143.689941 290.240884,143.66211 290.451172,143.625 L290.451172,146.092773 L290.036152,146.206374 C289.715547,146.289681 289.458055,146.344587 289.263672,146.371094 C288.991535,146.408203 288.620445,146.426758 288.150391,146.426758 C286.999994,146.426758 286.165042,146.018559 285.645508,145.202148 C285.373371,144.769204 285.181641,144.156905 285.070312,143.365234 C284.389971,144.255864 283.412767,145.028968 282.138672,145.68457 C280.864577,146.340173 279.46062,146.667969 277.926758,146.667969 C276.08365,146.667969 274.577643,146.108241 273.408691,144.98877 C272.23974,143.869298 271.655273,142.468433 271.655273,140.786133 C271.655273,138.943025 272.230463,137.514328 273.380859,136.5 C274.531256,135.485672 276.040355,134.861004 277.908203,134.625977 L283.233398,133.958008 Z M300.730469,125.775391 C302.28907,125.775391 303.649734,126.15885 304.8125,126.925781 C305.443363,127.358726 306.086585,127.989579 306.742188,128.818359 L306.742188,126.313477 L309.822266,126.313477 L309.822266,144.385742 C309.822266,146.909192 309.451176,148.900709 308.708984,150.360352 C307.323561,153.05698 304.707376,154.405273 300.860352,154.405273 C298.720367,154.405273 296.92058,153.925949 295.460938,152.967285 C294.001295,152.008622 293.184897,150.508799 293.011719,148.467773 L296.407227,148.467773 C296.568035,149.358403 296.889646,150.044919 297.37207,150.527344 C298.126631,151.269535 299.31412,151.640625 300.93457,151.640625 C303.49513,151.640625 305.17122,150.737639 305.962891,148.931641 C306.432945,147.867833 306.649414,145.969089 306.612305,143.235352 C305.944333,144.24968 305.140304,145.004229 304.200195,145.499023 C303.260086,145.993818 302.016935,146.241211 300.470703,146.241211 C298.318349,146.241211 296.435067,145.477384 294.820801,143.949707 C293.206535,142.42203 292.399414,139.895525 292.399414,136.370117 C292.399414,133.042627 293.21272,130.444996 294.839355,128.577148 C296.465991,126.709301 298.429676,125.775391 300.730469,125.775391 Z M306.742188,135.980469 C306.742188,133.518868 306.235031,131.694342 305.220703,130.506836 C304.206375,129.31933 302.913745,128.725586 301.342773,128.725586 C298.992501,128.725586 297.384444,129.826486 296.518555,132.02832 C296.06087,133.203456 295.832031,134.74348 295.832031,136.648438 C295.832031,138.887381 296.286617,140.591303 297.195801,141.760254 C298.104985,142.929205 299.32649,143.513672 300.860352,143.513672 C303.260103,143.513672 304.948563,142.431326 305.925781,140.266602 C306.470055,139.041986 306.742188,137.613289 306.742188,135.980469 Z M314.943359,126.12793 L318.116211,126.12793 L318.116211,129.560547 C318.375978,128.892575 319.013016,128.079269 320.027344,127.120605 C321.041672,126.161942 322.210605,125.682617 323.53418,125.682617 L323.659424,125.687256 L323.659424,125.687256 L324.033095,125.717665 C324.178783,125.731409 324.371201,125.750651 324.610352,125.775391 L324.610352,129.300781 C324.412434,129.263672 324.229981,129.238932 324.062988,129.226562 C323.895995,129.214193 323.713543,129.208008 323.515625,129.208008 C321.833325,129.208008 320.540695,129.749181 319.637695,130.831543 C318.734696,131.913905 318.283203,133.160149 318.283203,134.570312 L318.283203,146 L314.943359,146 L314.943359,126.12793 Z M330.06543,140.711914 C330.06543,141.676763 330.417965,142.437497 331.123047,142.994141 C331.828129,143.550784 332.663081,143.829102 333.62793,143.829102 C334.803066,143.829102 335.941075,143.556969 337.041992,143.012695 C338.89747,142.109696 339.825195,140.631521 339.825195,138.578125 L339.825195,135.887695 C339.41699,136.147462 338.891279,136.363931 338.248047,136.537109 C337.604814,136.710287 336.973961,136.833984 336.355469,136.908203 L334.333008,137.167969 C333.120762,137.328777 332.211592,137.582355 331.605469,137.928711 C330.578771,138.510094 330.06543,139.437819 330.06543,140.711914 Z M338.155273,133.958008 C338.922204,133.859049 339.435546,133.537438 339.695312,132.993164 C339.843751,132.696288 339.917969,132.269534 339.917969,131.712891 C339.917969,130.574864 339.512862,129.749189 338.702637,129.23584 C337.892411,128.722491 336.732755,128.46582 335.223633,128.46582 C333.479483,128.46582 332.242517,128.935868 331.512695,129.875977 C331.10449,130.39551 330.838542,131.168615 330.714844,132.195312 L327.597656,132.195312 C327.659506,129.746082 328.454257,128.04216 329.981934,127.083496 C331.509611,126.124832 333.281565,125.645508 335.297852,125.645508 C337.635754,125.645508 339.534498,126.090816 340.994141,126.981445 C342.441413,127.872075 343.165039,129.257478 343.165039,131.137695 L343.165039,142.585938 C343.165039,142.932293 343.236165,143.210611 343.378418,143.420898 C343.520671,143.631186 343.820636,143.736328 344.27832,143.736328 C344.426759,143.736328 344.593749,143.727051 344.779297,143.708496 C344.964845,143.689941 345.162759,143.66211 345.373047,143.625 L345.373047,146.092773 L344.958027,146.206374 C344.637422,146.289681 344.37993,146.344587 344.185547,146.371094 C343.91341,146.408203 343.54232,146.426758 343.072266,146.426758 C341.921869,146.426758 341.086917,146.018559 340.567383,145.202148 C340.295246,144.769204 340.103516,144.156905 339.992188,143.365234 C339.311846,144.255864 338.334642,145.028968 337.060547,145.68457 C335.786452,146.340173 334.382495,146.667969 332.848633,146.667969 C331.005525,146.667969 329.499518,146.108241 328.330566,144.98877 C327.161615,143.869298 326.577148,142.468433 326.577148,140.786133 C326.577148,138.943025 327.152338,137.514328 328.302734,136.5 C329.453131,135.485672 330.96223,134.861004 332.830078,134.625977 L338.155273,133.958008 Z M348.638672,126.12793 L351.941406,126.12793 L351.941406,128.948242 C352.733077,127.971024 353.450518,127.259768 354.09375,126.814453 C355.194667,126.059892 356.444003,125.682617 357.841797,125.682617 C359.425138,125.682617 360.699214,126.072262 361.664062,126.851562 C362.208336,127.296877 362.703123,127.95247 363.148438,128.818359 C363.890629,127.754552 364.76269,126.965986 365.764648,126.452637 C366.766607,125.939288 367.892246,125.682617 369.141602,125.682617 C371.81349,125.682617 373.631831,126.647451 374.59668,128.577148 C375.116214,129.616216 375.375977,131.013989 375.375977,132.770508 L375.375977,146 L371.90625,146 L371.90625,132.195312 C371.90625,130.871738 371.575361,129.962568 370.913574,129.467773 C370.251787,128.972979 369.444666,128.725586 368.492188,128.725586 C367.180983,128.725586 366.052251,129.164709 365.105957,130.042969 C364.159663,130.921228 363.686523,132.387034 363.686523,134.44043 L363.686523,146 L360.291016,146 L360.291016,133.030273 C360.291016,131.681959 360.13021,130.698571 359.808594,130.080078 C359.30143,129.152339 358.35515,128.688477 356.969727,128.688477 C355.708002,128.688477 354.560715,129.177078 353.527832,130.154297 C352.494949,131.131515 351.978516,132.900378 351.978516,135.460938 L351.978516,146 L348.638672,146 L348.638672,126.12793 Z M380.292969,126.12793 L383.595703,126.12793 L383.595703,128.948242 C384.387374,127.971024 385.104814,127.259768 385.748047,126.814453 C386.848964,126.059892 388.0983,125.682617 389.496094,125.682617 C391.079435,125.682617 392.353511,126.072262 393.318359,126.851562 C393.862633,127.296877 394.35742,127.95247 394.802734,128.818359 C395.544926,127.754552 396.416987,126.965986 397.418945,126.452637 C398.420903,125.939288 399.546543,125.682617 400.795898,125.682617 C403.467787,125.682617 405.286128,126.647451 406.250977,128.577148 C406.77051,129.616216 407.030273,131.013989 407.030273,132.770508 L407.030273,146 L403.560547,146 L403.560547,132.195312 C403.560547,130.871738 403.229658,129.962568 402.567871,129.467773 C401.906084,128.972979 401.098963,128.725586 400.146484,128.725586 C398.83528,128.725586 397.706548,129.164709 396.760254,130.042969 C395.81396,130.921228 395.34082,132.387034 395.34082,134.44043 L395.34082,146 L391.945312,146 L391.945312,133.030273 C391.945312,131.681959 391.784507,130.698571 391.462891,130.080078 C390.955727,129.152339 390.009447,128.688477 388.624023,128.688477 C387.362298,128.688477 386.215012,129.177078 385.182129,130.154297 C384.149246,131.131515 383.632812,132.900378 383.632812,135.460938 L383.632812,146 L380.292969,146 L380.292969,126.12793 Z M414.507812,140.711914 C414.507812,141.676763 414.860348,142.437497 415.56543,142.994141 C416.270511,143.550784 417.105464,143.829102 418.070312,143.829102 C419.245449,143.829102 420.383458,143.556969 421.484375,143.012695 C423.339853,142.109696 424.267578,140.631521 424.267578,138.578125 L424.267578,135.887695 C423.859373,136.147462 423.333662,136.363931 422.69043,136.537109 C422.047197,136.710287 421.416344,136.833984 420.797852,136.908203 L418.775391,137.167969 C417.563145,137.328777 416.653974,137.582355 416.047852,137.928711 C415.021154,138.510094 414.507812,139.437819 414.507812,140.711914 Z M422.597656,133.958008 C423.364587,133.859049 423.877928,133.537438 424.137695,132.993164 C424.286134,132.696288 424.360352,132.269534 424.360352,131.712891 C424.360352,130.574864 423.955245,129.749189 423.14502,129.23584 C422.334794,128.722491 421.175138,128.46582 419.666016,128.46582 C417.921866,128.46582 416.684899,128.935868 415.955078,129.875977 C415.546873,130.39551 415.280925,131.168615 415.157227,132.195312 L412.040039,132.195312 C412.101888,129.746082 412.896639,128.04216 414.424316,127.083496 C415.951993,126.124832 417.723948,125.645508 419.740234,125.645508 C422.078137,125.645508 423.976881,126.090816 425.436523,126.981445 C426.883796,127.872075 427.607422,129.257478 427.607422,131.137695 L427.607422,142.585938 C427.607422,142.932293 427.678547,143.210611 427.820801,143.420898 C427.963054,143.631186 428.263019,143.736328 428.720703,143.736328 C428.869141,143.736328 429.036132,143.727051 429.22168,143.708496 C429.407227,143.689941 429.605142,143.66211 429.81543,143.625 L429.81543,146.092773 L429.40041,146.206374 C429.079805,146.289681 428.822313,146.344587 428.62793,146.371094 C428.355793,146.408203 427.984703,146.426758 427.514648,146.426758 C426.364252,146.426758 425.529299,146.018559 425.009766,145.202148 C424.737629,144.769204 424.545899,144.156905 424.43457,143.365234 C423.754228,144.255864 422.777025,145.028968 421.50293,145.68457 C420.228835,146.340173 418.824877,146.667969 417.291016,146.667969 C415.447907,146.667969 413.9419,146.108241 412.772949,144.98877 C411.603998,143.869298 411.019531,142.468433 411.019531,140.786133 C411.019531,138.943025 411.594721,137.514328 412.745117,136.5 C413.895514,135.485672 415.404613,134.861004 417.272461,134.625977 L422.597656,133.958008 Z M432.821289,118.650391 L436.068359,118.650391 L436.068359,128.540039 C436.798181,127.58756 437.670242,126.860842 438.68457,126.359863 C439.698898,125.858884 440.799799,125.608398 441.987305,125.608398 C444.461275,125.608398 446.468254,126.458813 448.008301,128.159668 C449.548348,129.860523 450.318359,132.368473 450.318359,135.683594 C450.318359,138.825537 449.557625,141.435536 448.036133,143.513672 C446.514641,145.591807 444.405612,146.630859 441.708984,146.630859 C440.199862,146.630859 438.925786,146.265954 437.886719,145.536133 C437.268226,145.103188 436.606449,144.410487 435.901367,143.458008 L435.901367,146 L432.821289,146 L432.821289,118.650391 Z M441.504883,143.680664 C443.310881,143.680664 444.662268,142.963223 445.559082,141.52832 C446.455896,140.093417 446.904297,138.200858 446.904297,135.850586 C446.904297,133.760081 446.455896,132.028327 445.559082,130.655273 C444.662268,129.28222 443.341806,128.595703 441.597656,128.595703 C440.076164,128.595703 438.743333,129.158523 437.599121,130.28418 C436.45491,131.409836 435.882812,133.265287 435.882812,135.850586 C435.882812,137.718434 436.117836,139.233718 436.587891,140.396484 C437.46615,142.585948 439.105131,143.680664 441.504883,143.680664 Z M454.307617,118.743164 L457.647461,118.743164 L457.647461,146 L454.307617,146 L454.307617,118.743164 Z M470.932617,125.682617 C472.34278,125.682617 473.709629,126.013506 475.033203,126.675293 C476.356777,127.33708 477.364905,128.19368 478.057617,129.245117 C478.725589,130.247075 479.170897,131.416009 479.393555,132.751953 C479.591472,133.667322 479.69043,135.126943 479.69043,137.130859 L465.125,137.130859 C465.186849,139.147145 465.663081,140.76448 466.553711,141.98291 C467.44434,143.201341 468.823558,143.810547 470.691406,143.810547 C472.435556,143.810547 473.827143,143.235357 474.866211,142.084961 C475.459964,141.416989 475.880533,140.643885 476.12793,139.765625 L479.412109,139.765625 C479.32552,140.495446 479.037926,141.308752 478.549316,142.205566 C478.060707,143.102381 477.513349,143.835284 476.907227,144.404297 C475.892899,145.393885 474.637377,146.061847 473.140625,146.408203 C472.336585,146.606121 471.427414,146.705078 470.413086,146.705078 C467.939115,146.705078 465.842457,145.805185 464.123047,144.005371 C462.403637,142.205557 461.543945,139.685238 461.543945,136.444336 C461.543945,133.252914 462.409822,130.661468 464.141602,128.669922 C465.873381,126.678375 468.13703,125.682617 470.932617,125.682617 Z M476.257812,134.477539 C476.121744,133.030266 475.806318,131.873702 475.311523,131.007812 C474.396154,129.399732 472.8685,128.595703 470.728516,128.595703 C469.194654,128.595703 467.908208,129.149246 466.869141,130.256348 C465.830073,131.36345 465.279623,132.770499 465.217773,134.477539 L476.257812,134.477539 Z M495.016602,120.580078 L498.393555,120.580078 L498.393555,126.12793 L501.566406,126.12793 L501.566406,128.855469 L498.393555,128.855469 L498.393555,141.825195 C498.393555,142.517907 498.628578,142.98177 499.098633,143.216797 C499.3584,143.352865 499.791338,143.420898 500.397461,143.420898 L500.735568,143.416775 L500.735568,143.416775 L500.916992,143.411621 C501.10254,143.405436 501.319009,143.389974 501.566406,143.365234 L501.566406,146 C501.182941,146.111329 500.784019,146.191732 500.369629,146.241211 C499.955239,146.29069 499.506838,146.31543 499.024414,146.31543 C497.465813,146.31543 496.408206,145.916508 495.851562,145.118652 C495.294919,144.320797 495.016602,143.284837 495.016602,142.010742 L495.016602,128.855469 L492.326172,128.855469 L492.326172,126.12793 L495.016602,126.12793 L495.016602,120.580078 Z M512.791992,143.847656 C515.006196,143.847656 516.524573,143.009611 517.347168,141.333496 C518.169763,139.657381 518.581055,137.792653 518.581055,135.739258 C518.581055,133.88378 518.284183,132.37468 517.69043,131.211914 C516.750321,129.381176 515.129894,128.46582 512.829102,128.46582 C510.788076,128.46582 509.303716,129.245109 508.375977,130.803711 C507.448238,132.362312 506.984375,134.242502 506.984375,136.444336 C506.984375,138.559581 507.448238,140.322259 508.375977,141.732422 C509.303716,143.142585 510.775706,143.847656 512.791992,143.847656 Z M512.921875,125.552734 C515.482435,125.552734 517.647127,126.406241 519.416016,128.113281 C521.184905,129.820321 522.069336,132.331364 522.069336,135.646484 C522.069336,138.850276 521.290047,141.497385 519.731445,143.587891 C518.172844,145.678396 515.754574,146.723633 512.476562,146.723633 C509.742825,146.723633 507.571948,145.799 505.963867,143.949707 C504.355786,142.100414 503.551758,139.617203 503.551758,136.5 C503.551758,133.16014 504.39908,130.500661 506.09375,128.521484 C507.78842,126.542308 510.064439,125.552734 512.921875,125.552734 Z M529.379883,126.12793 L529.379883,139.320312 C529.379883,140.33464 529.540688,141.163408 529.862305,141.806641 C530.456058,142.994147 531.563143,143.587891 533.183594,143.587891 C535.509126,143.587891 537.092444,142.548839 537.933594,140.470703 C538.391278,139.357416 538.620117,137.829762 538.620117,135.887695 L538.620117,126.12793 L541.959961,126.12793 L541.959961,146 L538.805664,146 L538.842773,143.068359 C538.409829,143.82292 537.871748,144.459958 537.228516,144.979492 C535.954421,146.01856 534.408212,146.538086 532.589844,146.538086 C529.757147,146.538086 527.827479,145.591806 526.800781,143.699219 C526.244138,142.684891 525.96582,141.330412 525.96582,139.635742 L525.96582,126.12793 L529.379883,126.12793 Z M547.266602,126.12793 L550.439453,126.12793 L550.439453,129.560547 C550.69922,128.892575 551.336258,128.079269 552.350586,127.120605 C553.364914,126.161942 554.533848,125.682617 555.857422,125.682617 L555.982666,125.687256 L555.982666,125.687256 L556.356337,125.717665 C556.502025,125.731409 556.694443,125.750651 556.933594,125.775391 L556.933594,129.300781 C556.735676,129.263672 556.553223,129.238932 556.38623,129.226562 C556.219237,129.214193 556.036785,129.208008 555.838867,129.208008 C554.156567,129.208008 552.863937,129.749181 551.960938,130.831543 C551.057938,131.913905 550.606445,133.160149 550.606445,134.570312 L550.606445,146 L547.266602,146 L547.266602,126.12793 Z M561.813477,139.765625 C561.912435,140.878912 562.190753,141.732419 562.648438,142.326172 C563.489588,143.402349 564.949208,143.94043 567.027344,143.94043 C568.264329,143.94043 569.35286,143.671389 570.292969,143.133301 C571.233078,142.595212 571.703125,141.763352 571.703125,140.637695 C571.703125,139.784175 571.32585,139.134768 570.571289,138.689453 C570.123324,138.436755 569.270069,138.14673 568.011501,137.819371 L565.060547,137.075195 C563.365877,136.65462 562.11654,136.184573 561.3125,135.665039 C559.877597,134.76204 559.160156,133.512703 559.160156,131.916992 C559.160156,130.036774 559.837396,128.515305 561.191895,127.352539 C562.546393,126.189773 564.367827,125.608398 566.65625,125.608398 C569.649755,125.608398 571.808262,126.486645 573.131836,128.243164 C573.960616,129.356451 574.36263,130.556309 574.337891,131.842773 L571.183594,131.842773 C571.121744,131.088212 570.855797,130.401696 570.385742,129.783203 C569.618811,128.904944 568.289072,128.46582 566.396484,128.46582 C565.134759,128.46582 564.179202,128.707029 563.529785,129.189453 C562.880368,129.671877 562.555664,130.308915 562.555664,131.100586 C562.555664,131.966476 562.982418,132.659177 563.835938,133.178711 C564.330732,133.487957 565.060542,133.76009 566.025391,133.995117 L568.233398,134.533203 C570.63315,135.114586 572.241207,135.677406 573.057617,136.22168 C574.356452,137.0752 575.005859,138.417309 575.005859,140.248047 C575.005859,142.016936 574.334805,143.54459 572.992676,144.831055 C571.650547,146.117519 569.606459,146.760742 566.860352,146.760742 C563.903957,146.760742 561.81039,146.089688 560.57959,144.747559 C559.348789,143.405429 558.690105,141.744802 558.603516,139.765625 L561.813477,139.765625 Z" id="path-4"></path>
    </defs>
    <g id="Page-1" stroke="none" stroke-width="1" fill="none" fill-rule="evenodd">
        <g id="5f80a2d532c7080021176177" fill-rule="nonzero">
            <g id="instagram-logo">
                <path d="M122.4,0 L46.7,0 C20.9,0 0,20.9 0,46.7 L0,122.5 C0,148.2 20.9,169.2 46.7,169.2 L122.5,169.2 C148.2,169.2 169.2,148.3 169.2,122.5 L169.2,46.7 C169.1,20.9 148.1,0 122.4,0 Z M154.1,122.4 C154.1,139.9 139.9,154.1 122.4,154.1 L46.7,154.1 C29.2,154.1 15,139.9 15,122.4 L15,46.7 C15,29.2 29.2,15 46.7,15 L122.5,15 C140,15 154.2,29.2 154.2,46.7 L154.2,122.4 L154.1,122.4 Z" id="Shape" fill="url(#linearGradient-1)"></path>
                <path d="M84.5,41 C60.5,41 41,60.5 41,84.5 C41,108.5 60.5,128.1 84.6,128.1 C108.7,128.1 128.2,108.6 128.2,84.5 C128.1,60.5 108.6,41 84.5,41 Z M84.5,113.1 C68.8,113.1 55.9,100.3 55.9,84.5 C56,68.8 68.8,56 84.5,56 C100.2,56 113.1,68.8 113.1,84.6 C113.1,100.3 100.3,113.1 84.5,113.1 Z" id="Shape_1_" fill="url(#linearGradient-2)"></path>
                <path d="M129.9,28.3 C127,28.3 124.2,29.5 122.1,31.5 C120,33.5 118.9,36.4 118.9,39.3 C118.9,42.2 120.1,45 122.1,47.1 C124.1,49.1 127,50.3 129.9,50.3 C132.8,50.3 135.6,49.1 137.7,47.1 C139.8,45.1 140.9,42.2 140.9,39.3 C140.9,36.4 139.7,33.6 137.7,31.5 C135.7,29.4 132.8,28.3 129.9,28.3 Z" id="Path" fill="url(#linearGradient-3)"></path>
            </g>
            <g id="Group" transform="translate(215.000000, 19.000000)" fill="#3F3631">
                <polygon id="Path" points="16.3 64 0.9 64 0.9 0 16.3 0"></polygon>
                <path d="M40.8,16.5 L41.3,22.1 C44.6,17.8 49.1,15.6 54.9,15.6 C59.9,15.6 63.5,17.1 66,20 C68.4,23 69.7,27.4 69.8,33.4 L69.8,64 L54.9,64 L54.9,34 C54.9,31.6 54.4,29.8 53.4,28.7 C52.4,27.6 50.7,27 48.1,27 C45.2,27 43,28.1 41.6,30.4 L41.6,64 L26.8,64 L26.8,16.5 L40.8,16.5 Z" id="Path"></path>
                <path d="M103.8,50.6 C103.8,49.3 103.1,48.3 101.8,47.6 C100.5,46.9 98,46 94.3,45.2 C90.6,44.4 87.6,43.3 85.2,42 C82.8,40.7 81,39 79.7,37.1 C78.4,35.2 77.8,33 77.8,30.6 C77.8,26.2 79.6,22.6 83.2,19.8 C86.8,17 91.5,15.6 97.4,15.6 C103.7,15.6 108.7,17 112.5,19.9 C116.3,22.8 118.2,26.5 118.2,31.1 L103.3,31.1 C103.3,27.3 101.3,25.4 97.3,25.4 C95.7,25.4 94.4,25.8 93.4,26.7 C92.4,27.6 91.8,28.6 91.8,29.9 C91.8,31.2 92.4,32.3 93.7,33.1 C95,33.9 97,34.6 99.9,35.1 C102.7,35.6 105.2,36.3 107.3,37 C114.4,39.5 118,43.9 118,50.2 C118,54.5 116.1,58.1 112.2,60.8 C108.3,63.5 103.4,64.9 97.2,64.9 C93.1,64.9 89.5,64.2 86.3,62.7 C83.1,61.2 80.6,59.2 78.8,56.7 C77,54.2 76.1,51.5 76.1,48.7 L89.9,48.7 C90,50.9 90.7,52.5 92.1,53.5 C93.5,54.5 95.3,55 97.5,55 C99.5,55 101,54.6 102,53.8 C103.3,53 103.8,52 103.8,50.6 Z" id="Path"></path>
                <path d="M143.1,4.6 L143.1,16.4 L150.9,16.4 L150.9,26.7 L143.1,26.7 L143.1,48.5 C143.1,50.3 143.4,51.5 144.1,52.2 C144.8,52.9 146,53.3 147.9,53.3 C149.4,53.3 150.6,53.2 151.6,53 L151.6,63.6 C148.9,64.4 146.2,64.9 143.3,64.9 C138.2,64.9 134.4,63.7 132,61.3 C129.6,58.9 128.4,55.3 128.4,50.4 L128.4,26.7 L122.3,26.7 L122.3,16.5 L128.4,16.5 L128.4,4.6 L143.1,4.6 Z" id="Path"></path>
                <path d="M184.4,64 C183.9,63 183.4,61.6 183,59.7 C180.3,63.1 176.5,64.8 171.6,64.8 C167.1,64.8 163.3,63.4 160.2,60.7 C157.1,58 155.5,54.6 155.5,50.5 C155.5,45.3 157.4,41.4 161.2,38.8 C165,36.2 170.5,34.8 177.8,34.8 L182.4,34.8 L182.4,32.3 C182.4,27.9 180.5,25.7 176.7,25.7 C173.2,25.7 171.4,27.4 171.4,30.9 L156.6,30.9 C156.6,26.3 158.6,22.6 162.5,19.7 C166.4,16.8 171.4,15.4 177.5,15.4 C183.6,15.4 188.4,16.9 191.9,19.8 C195.4,22.7 197.2,26.8 197.3,32 L197.3,53 C197.4,57.4 198,60.7 199.3,63 L199.3,64 L184.4,64 Z M175.2,54.3 C177,54.3 178.6,53.9 179.8,53.1 C181,52.3 181.9,51.4 182.4,50.4 L182.4,42.8 L178.1,42.8 C172.9,42.8 170.4,45.1 170.4,49.7 C170.4,51 170.9,52.1 171.8,53 C172.6,53.9 173.8,54.3 175.2,54.3 Z" id="Shape"></path>
            </g>
            <path d="M422.9,76.8 C422.9,74.8 423.6,73.1 424.9,71.9 C426.2,70.7 428,70 430,70 C432.1,70 433.8,70.6 435.2,71.9 C436.6,73.2 437.2,74.8 437.2,76.8 C437.2,78.8 436.5,80.4 435.2,81.7 C433.9,82.9 432.1,83.6 430,83.6 C427.9,83.6 426.2,83 424.9,81.7 C423.6,80.4 422.9,78.8 422.9,76.8 Z" id="Path" fill="#FF3C42"></path>
            <g id="Group" transform="translate(442.000000, 16.000000)" fill="#3F3631">
                <polygon id="Path" points="53.6 14.9 34.4 14.9 34.4 67 19 67 19 14.9 0.1 14.9 0.1 3 53.6 3"></polygon>
                <path d="M86.2,32.9 L81.3,32.5 C76.6,32.5 73.7,34 72.3,36.9 L72.3,67 L57.5,67 L57.5,19.5 L71.4,19.5 L71.9,25.6 C74.4,20.9 77.9,18.6 82.3,18.6 C83.9,18.6 85.3,18.8 86.4,19.1 L86.2,32.9 Z" id="Path"></path>
                <path d="M92.4,7.2 C92.4,5.1 93.2,3.4 94.7,2 C96.2,0.7 98.2,0 100.6,0 C103,0 105,0.7 106.5,2 C108,3.3 108.8,5.1 108.8,7.2 C108.8,9.3 108,11 106.5,12.4 C105,13.7 103,14.4 100.6,14.4 C98.2,14.4 96.2,13.7 94.7,12.4 C93.1,11 92.4,9.3 92.4,7.2 Z M108.1,67 L93.2,67 L93.2,19.5 L108.1,19.5 L108.1,67 Z" id="Shape"></path>
                <path d="M162.3,43.6 C162.3,51 160.6,56.9 157.3,61.3 C154,65.7 149.5,67.9 143.8,67.9 C139.4,67.9 135.8,66.3 133,63.1 L133,85.3 L118.2,85.3 L118.2,19.5 L132,19.5 L132.4,23.9 C135.2,20.4 139,18.6 143.6,18.6 C149.5,18.6 154,20.8 157.3,25.1 C160.6,29.4 162.2,35.4 162.2,42.9 L162.2,43.6 L162.3,43.6 Z M147.4,42.7 C147.4,34.3 144.9,30 140,30 C136.5,30 134.1,31.3 133,33.8 L133,52.5 C134.3,55.1 136.7,56.5 140.1,56.5 C144.8,56.5 147.2,52.4 147.4,44.3 L147.4,42.7 Z" id="Shape"></path>
            </g>
            <g id="instagrammabletours">
                <use fill="#000000" xlink:href="#path-4"></use>
                <use fill="#888692" xlink:href="#path-4"></use>
            </g>
        </g>
    </g>
</svg>