<svg width="36" height="23" viewBox="0 0 36 23" fill="none" xmlns="http://www.w3.org/2000/svg">
<path d="M34.4277 20.8769H1.35272V22.0697H34.4277V20.8769Z" fill="#1F4AA8"/>
<path d="M33.9258 2.0868C31.5237 0.92558 28.7943 1.54242 26.9279 2.26429L21.3643 4.41617L11.7955 0.424316L6.09709 0.627386L13.9986 7.27161L8.96297 9.25573L3.72382 7.60189L0.216003 8.95855L3.3861 12.2237C3.05118 12.5551 2.74768 13.0217 3.02321 13.5118C3.38308 14.1519 4.44672 14.4745 6.19143 14.4744C6.54921 14.4744 6.93569 14.4609 7.35049 14.4337C9.26567 14.3082 11.3421 13.9027 12.6404 13.4006L32.5282 5.70842C34.246 5.04399 35.1016 4.34634 35.144 3.57545C35.166 3.17563 34.9725 2.59266 33.9258 2.0868ZM31.9204 4.62735L12.0326 12.3196C10.9265 12.7474 9.11044 13.1059 7.40607 13.2328C5.66403 13.3625 4.73261 13.1996 4.42213 13.0613C4.48605 12.9888 4.60541 12.8747 4.82565 12.7139L5.34219 12.3368L2.4871 9.39618L3.78033 8.89593L9.02509 10.5517L16.4432 7.62885L9.39675 1.70363L11.4834 1.62926L21.3404 5.74128L27.5355 3.34524C29.798 2.47016 31.7043 2.39359 33.2016 3.11724L33.2017 3.1173C33.5789 3.29962 33.7108 3.45867 33.7074 3.52105C33.7072 3.52535 33.664 3.95308 31.9204 4.62735Z" fill="#1F4AA8"/>
</svg>
